# xmcd CD database file
#
# Track frame offsets:
#	150
#	16148
#	50532
#	69357
#	94161
#	115922
#	139317
#	161139
#	179382
#	196596
#	199519
#	219738
#	239503
#	261531
#	284783
#
# Disc length: 4054 seconds
#
# Revision: 0
# Processed by: cddbd v1.5.1PL0 Copyright (c) Steve Scherf et al.
# Submitted via: CDex 1.51
#
DISCID=e70fd40f
DTITLE=asha - dreamage
DYEAR=2004
DGENRE=Techno
TTITLE0=dreamage
TTITLE1=溢れ出る大地、鼓動
TTITLE2=鏡に消えゆく影
TTITLE3=the universe beside you
TTITLE4=追憶
TTITLE5=endless maze
TTITLE6=遠い呼び声
TTITLE7=夕暮れの歌
TTITLE8=黄金の園
TTITLE9=INTERLUDE
TTITLE10=霧深きレジリア
TTITLE11=silicic kaleidoscopes
TTITLE12=beyond the cloud, to the north
TTITLE13=butterflies in dreaming age
TTITLE14=遺伝子
EXTD=YEAR: 2004
EXTT0=
EXTT1=
EXTT2=
EXTT3=
EXTT4=
EXTT5=
EXTT6=
EXTT7=
EXTT8=
EXTT9=
EXTT10=
EXTT11=
EXTT12=
EXTT13=
EXTT14=
PLAYORDER=
